<svg xmlns="http://www.w3.org/2000/svg" viewBox="0 0 267 179"><path fill="#1E2733" fill-rule="evenodd" d="M71 161C71 161 70 160 69 160C69 160 68 160 68 160C68 160 67 160 67 160C66 159 66 159 65 159C65 159 64 159 64 158C63 158 62 157 61 157C57 155 54 149 52 142C52 141 52 140 51 139C51 138 51 138 50 138C49 138 48 138 47 138C47 139 45 139 43 139C39 139 37 138 33 136C29 134 29 134 26 132C23 130 20 125 20 124C20 124 20 123 20 123C19 121 18 118 19 116C19 114 20 113 20 113C20 113 20 112 20 111C21 107 28 98 34 95C34 94 35 94 36 94C36 93 37 93 37 92C38 92 39 91 39 91C39 91 40 90 40 90C42 88 43 87 44 85C46 82 47 79 47 78C47 78 47 77 46 76C43 75 40 71 38 66C37 65 37 64 36 64C36 64 36 63 36 63C36 62 35 61 35 61C34 60 33 57 33 57C33 56 34 56 35 56C39 60 50 61 55 58C55 58 56 58 56 58C56 58 57 57 59 56C62 55 63 54 65 53C66 52 66 52 67 52C69 51 74 46 76 43C77 42 77 42 78 41C78 41 78 40 78 40C79 39 83 34 86 32C87 30 88 29 88 29C88 29 89 28 90 28C91 27 92 26 94 25C95 23 98 22 98 22C99 22 99 22 100 21C101 21 102 20 103 20C104 20 105 20 106 19C109 18 117 18 119 20C119 20 120 20 120 20C121 20 122 21 123 21C124 22 125 22 125 22C126 22 127 24 129 26C133 29 132 29 133 28C133 27 133 27 135 26C135 26 137 25 138 24C138 24 140 23 140 23C141 23 142 23 143 22C144 22 145 22 147 22C148 22 149 22 150 22C151 21 161 20 164 21C168 21 172 21 173 22C173 22 175 22 176 22C178 22 182 23 186 24C187 25 188 25 189 25C191 25 195 28 197 30C202 34 202 35 204 37C205 39 206 40 206 41C206 42 206 42 207 44C208 45 208 46 208 46C208 46 208 47 208 47C208 48 209 48 209 48C209 49 209 50 210 51C210 52 211 54 211 54C211 54 211 55 212 56C212 57 212 57 212 58C212 58 212 58 212 59C212 59 213 60 213 60C213 61 213 62 213 62C214 63 214 64 214 65C214 67 215 70 215 71C215 71 216 72 216 73C216 74 217 75 217 76C217 76 217 77 217 77C218 79 219 81 219 82C219 83 219 84 219 84C220 85 220 86 220 86C221 87 222 89 222 89C222 90 224 91 224 92C226 94 228 96 229 96C231 98 234 100 236 102C238 104 242 108 243 111C243 112 244 114 245 115C246 117 247 118 247 119C247 119 247 120 247 120C249 121 249 130 248 134C247 135 247 136 247 136C247 137 246 140 245 140C245 140 245 141 244 142C244 143 244 144 244 144C243 144 243 145 243 146C243 146 242 147 242 148C241 148 241 150 240 150C239 153 234 157 232 157C232 157 231 157 230 158C228 158 218 159 216 158C216 158 215 158 214 158C213 158 212 158 212 157C212 157 211 157 210 157C209 157 207 156 203 154C202 154 201 153 201 153C199 153 191 146 191 143C191 143 191 142 191 142C190 140 190 140 190 136C190 132 190 132 191 130C192 129 192 128 192 128C192 126 196 122 197 122C197 122 198 122 199 121C202 121 204 121 206 122C210 123 212 125 213 128C214 129 214 131 214 131C215 131 215 133 215 134C214 135 213 134 211 132C210 130 206 126 203 125C201 124 200 124 198 125C198 125 197 126 197 126C196 126 195 128 195 128C195 128 195 129 195 129C194 129 193 131 193 132C193 133 192 134 192 134C192 135 192 139 192 140C193 140 193 141 193 141C193 142 194 144 194 144C195 144 195 145 195 146C196 147 199 149 201 150C201 150 202 151 202 151C202 151 205 152 205 152C206 152 208 153 208 154C208 154 210 155 212 155C213 155 214 155 214 156C215 156 218 157 220 157C224 156 228 156 229 156C229 156 230 155 231 155C233 155 237 152 239 148C239 148 239 147 240 147C240 147 240 146 240 146C240 146 241 145 241 144C241 144 242 143 242 142C244 137 244 136 245 135C245 134 245 133 246 132C247 130 247 124 246 121C245 120 244 119 244 117C243 115 242 114 242 113C241 113 241 112 240 112C240 110 238 108 238 108C238 108 237 107 237 106C236 105 233 103 231 101C230 101 229 100 228 99C228 99 227 98 226 98C225 97 225 96 222 93C221 91 220 90 219 90C218 88 217 86 217 85C217 84 217 84 217 83C215 79 215 78 214 76C214 75 213 72 212 70C212 69 212 67 212 67C211 66 211 66 211 65C211 64 211 64 211 63C211 62 210 61 210 60C210 60 210 59 210 59C209 58 209 58 209 57C209 56 208 55 208 54C208 53 207 51 207 51C207 50 207 50 206 49C206 49 206 48 206 48C206 48 206 47 206 47C206 47 205 46 205 46C205 45 204 43 204 42C204 42 203 41 203 41C203 40 202 39 202 39C202 38 201 38 201 38C201 36 199 34 197 33C193 30 190 28 189 28C189 28 188 28 188 28C188 27 187 27 186 27C185 27 184 26 183 26C182 26 181 26 181 26C180 26 180 26 180 26C180 25 176 24 172 24C171 24 169 24 168 23C164 23 156 23 154 24C154 24 152 24 151 24C150 24 149 24 148 24C147 24 146 25 145 25C143 25 142 25 142 26C141 26 141 26 140 26C140 26 139 27 138 28C137 29 135 30 135 30C134 30 134 31 134 32C134 33 134 33 133 33C132 33 131 33 130 31C129 28 126 26 124 24C120 22 120 22 118 22C118 22 117 22 117 21C115 20 109 20 107 21C106 22 106 22 106 22C105 22 101 23 100 24C100 24 100 24 99 24C99 24 98 24 98 25C96 26 94 27 94 27C94 27 93 28 92 28C92 29 91 30 90 30C89 31 88 32 88 32C87 33 86 34 86 35C85 36 84 37 83 38C83 38 82 39 82 39C82 39 82 40 82 40C81 40 81 41 81 41C79 44 73 50 71 51C70 52 68 53 68 54C64 56 63 57 60 59C58 59 55 61 53 61C50 62 42 62 40 60C39 60 38 60 38 60C38 61 38 62 39 63C39 63 39 64 39 64C39 64 40 66 41 68C46 74 47 75 49 75C52 75 53 77 51 79C51 80 50 81 50 81C48 85 44 89 41 93C39 94 37 96 36 96C35 97 34 98 33 98C32 99 31 100 30 100C30 100 29 101 29 102C28 102 27 104 27 104C25 107 24 107 24 108C24 109 23 110 23 111C22 112 22 113 22 114C22 114 22 115 21 115C21 116 21 119 21 121C22 121 22 122 22 123C22 126 31 134 33 134C33 134 34 134 34 134C36 136 40 136 47 136C53 136 53 136 54 136C54 137 54 137 54 138C54 142 56 149 58 151C60 153 61 154 62 155C63 155 64 156 64 156C64 156 67 157 67 157C67 157 68 157 68 158C68 158 69 158 70 158C70 158 72 158 72 159C73 159 77 159 80 158C84 157 90 150 90 146C90 146 91 145 92 144C95 141 95 141 92 139C89 137 85 133 83 129C82 127 81 126 79 126C77 125 76 125 75 124C75 124 74 124 74 124C73 123 71 121 69 119C67 118 66 115 66 111C66 109 66 108 67 105C68 104 68 104 66 102C65 100 64 98 64 98C64 98 64 97 64 97C63 96 63 96 63 96C63 95 63 95 63 94C62 93 62 89 63 87C63 84 65 82 67 80C73 75 79 75 83 79C85 81 84 83 82 83C81 83 81 83 82 85C82 85 82 86 82 87C82 87 82 88 82 89C83 91 83 98 82 99C82 100 82 106 82 106C83 106 86 106 87 106C91 103 93 101 96 97C100 93 103 88 103 87C103 86 103 86 104 85C105 84 105 82 105 78C105 74 105 70 106 69C106 69 106 68 106 67C107 64 110 58 112 55C112 54 113 54 113 53C115 51 119 47 122 46C125 44 131 46 132 48C132 49 132 50 133 50C134 52 134 53 133 53C133 54 133 54 132 53C131 52 131 52 130 52C130 52 130 51 129 50C129 50 128 49 128 49C127 49 126 48 126 48C126 48 124 48 122 49C121 49 120 50 120 50C120 50 120 50 119 51C118 51 118 52 117 52C115 54 113 57 113 58C113 58 113 59 112 60C112 62 111 70 112 71C112 71 115 71 116 70C116 70 117 70 118 70C118 70 120 70 121 69C122 68 123 68 123 68C123 68 124 68 124 68C125 67 127 67 127 68C127 69 125 70 125 70C124 70 124 70 124 70C124 71 122 71 120 72C119 72 118 72 118 72C118 73 115 73 111 73C111 73 111 74 111 74C111 75 111 76 111 76C110 77 110 78 110 79C110 80 110 81 109 81C109 82 109 82 109 83C109 84 109 84 111 84C112 84 113 85 114 85C114 86 114 86 115 86C115 86 116 87 117 87C117 88 118 88 119 88C120 89 121 89 121 90C122 90 122 90 122 90C123 90 124 92 124 92C124 93 122 94 122 94C120 94 120 94 120 93C120 92 120 92 120 91C120 91 118 90 118 90C118 90 117 90 117 90C117 89 116 89 115 88C114 88 113 88 113 88C112 87 110 86 109 86C108 86 107 87 107 88C107 88 107 89 106 89C106 89 106 90 106 90C106 91 104 94 103 96C103 96 102 98 100 98C99 100 97 102 95 104C94 105 91 107 91 107C90 107 90 107 89 107C88 108 88 108 87 108C87 108 86 108 86 108C85 109 84 109 84 109C82 109 82 109 82 112C82 118 82 122 84 124C84 125 85 126 85 126C85 129 92 138 97 140C97 140 98 141 99 141C102 143 106 145 108 145C109 145 110 145 111 146C112 146 115 146 117 147C119 147 130 147 134 147C140 146 144 146 145 146C146 145 147 145 147 145C148 145 149 145 149 145C149 144 154 143 157 142C160 141 161 141 163 140C164 140 165 139 166 139C166 139 166 139 167 139C167 138 168 138 170 137C175 134 177 132 179 129C180 128 180 127 181 126C182 126 182 125 182 124C183 124 184 123 185 121C186 120 187 118 188 117C188 116 188 116 189 116C189 115 189 115 189 115C189 114 189 114 189 114C190 114 190 113 190 112C190 111 191 110 191 110C191 110 191 110 191 109C191 107 192 106 193 106C194 106 194 106 194 108C194 108 193 110 193 110C193 112 191 116 190 117C189 119 190 120 192 119C192 118 193 118 194 118C194 118 197 116 200 114C202 113 204 110 204 109C204 109 204 109 204 108C206 106 206 102 204 98C204 97 202 94 202 94C201 94 201 94 200 94C199 93 199 93 198 93C198 94 198 94 198 94C200 96 199 98 198 98C197 98 188 98 188 97C188 97 187 97 186 97C183 96 180 94 177 90C174 88 174 88 173 88C171 88 171 88 171 86C171 85 171 84 169 84C168 84 163 85 162 85C162 86 161 86 161 86C159 86 157 87 156 87C156 88 155 88 154 88C152 88 151 89 150 90C150 91 149 91 148 90C148 89 151 87 152 87C153 86 154 86 154 86C155 85 156 85 159 84C160 84 160 84 161 84C161 83 162 83 162 83C163 83 164 83 165 83C166 82 167 82 169 82C172 82 172 82 171 80C171 80 170 79 170 78C170 78 170 77 170 77C169 76 169 76 169 75C169 75 168 72 168 70C167 70 167 68 166 68C166 67 166 65 165 64C164 63 164 62 164 62C164 61 164 61 164 61C163 60 162 57 162 57C162 56 162 56 162 55C161 54 161 54 161 54C161 54 159 50 159 49C158 48 158 47 159 47C160 47 160 47 161 49C163 54 164 55 164 57C165 58 165 59 166 60C166 60 166 61 166 61C166 61 166 62 166 62C167 62 167 62 167 63C167 63 167 64 167 64C168 65 168 66 169 68C169 69 169 70 170 70C170 71 170 72 170 72C170 72 170 73 170 73C171 73 171 74 171 74C171 74 171 75 171 75C172 76 172 77 172 77C172 78 174 82 175 85C177 88 182 93 184 93C188 95 188 95 191 95C195 95 196 95 196 93C196 92 198 91 199 91C201 91 205 94 206 96C206 96 206 97 206 97C208 99 208 105 207 107C207 107 207 108 207 108C207 108 207 109 206 110C206 110 206 111 206 111C206 112 202 116 199 117C198 118 197 118 197 118C196 119 195 119 194 120C193 120 192 120 192 120C191 121 190 121 190 121C189 121 188 122 187 122C186 123 186 124 185 125C184 125 184 126 184 126C184 126 183 127 183 127C182 128 182 129 182 129C180 132 174 137 173 137C172 137 169 141 168 144C167 149 168 152 171 154C172 155 172 155 174 155C178 155 180 154 183 151C185 149 186 147 186 146C186 146 187 144 188 144C188 144 188 146 188 148C187 148 187 149 187 149C187 150 182 156 180 157C177 160 170 158 168 154C166 150 166 150 166 147C166 146 166 144 166 143C167 141 167 140 164 142C163 142 162 143 160 143C159 144 157 144 156 144C156 144 155 145 154 145C154 145 152 145 151 146C150 146 149 147 149 147C148 147 147 147 147 147C146 148 145 148 144 148C143 148 142 148 142 148C142 148 140 149 137 149C135 149 132 149 131 149C129 150 115 149 112 148C111 148 108 147 107 147C106 147 103 146 102 145C101 145 101 145 101 145C101 145 100 144 99 144C98 143 97 143 95 144C94 146 94 146 94 147C94 149 94 149 93 150C92 151 92 152 91 153C90 155 85 159 83 160C81 161 74 161 71 161ZM144 132C144 132 143 131 143 131C143 131 143 130 142 131C142 131 139 131 136 131C132 131 130 131 130 132C128 132 123 132 122 131C121 130 122 129 124 127C125 126 127 125 128 125C128 125 129 125 130 124C130 124 133 124 138 123C140 123 142 123 142 123C143 122 143 122 145 123C148 123 149 124 151 125C152 127 152 127 152 128C152 131 151 132 148 132C147 132 146 132 146 132C145 133 145 133 144 132ZM128 130C128 129 130 129 134 129C137 129 139 129 140 129C141 128 144 128 145 128C146 129 147 129 148 129C149 129 149 129 149 128C149 126 147 125 141 126C138 126 136 126 136 126C134 125 130 126 128 127C127 128 126 128 126 128C126 128 125 129 125 129C125 130 126 130 128 130ZM81 123C80 121 80 118 80 117C79 116 79 114 79 112C79 108 79 108 77 108C76 108 75 108 75 107C71 106 70 106 69 107C69 108 69 114 69 115C70 118 73 120 75 122C76 122 76 122 77 122C77 123 79 124 80 124C81 124 81 124 81 123ZM134 108C133 107 134 104 135 104C136 104 138 107 137 108C136 108 135 108 134 108ZM79 106C79 105 79 105 80 103C80 100 80 99 80 98C79 98 77 98 75 99C73 100 71 102 71 103C71 103 74 105 75 105C75 105 76 105 76 106C76 106 77 106 77 106C78 106 78 106 78 106C78 106 79 106 79 106ZM116 103C114 102 114 102 114 99C114 96 116 93 117 93C118 93 123 97 124 100C125 101 125 102 123 103C121 104 118 104 116 103ZM152 101C151 100 150 97 151 96C151 96 151 95 151 94C151 93 152 91 153 90C155 89 157 91 158 96C159 98 159 99 157 101C156 102 156 102 154 102C153 102 152 102 152 101ZM121 100C121 99 120 99 120 100C120 100 120 101 120 101C121 101 121 101 121 100ZM70 99C72 97 75 96 78 96L80 96L80 92C80 88 80 87 80 87C79 86 79 85 79 84C78 82 77 81 73 81C70 81 70 81 68 82C64 87 64 91 66 97C67 98 67 98 67 98C67 99 68 100 69 100C69 100 70 100 70 99ZM79 79C79 79 77 78 77 78C76 78 76 79 77 79C77 79 78 79 78 79C78 80 79 80 79 79ZM108 78C108 78 108 77 108 76C108 76 108 75 109 75C109 74 109 68 109 68C109 68 108 68 108 68C108 68 107 77 107 78C107 79 108 79 108 78ZM147 71C144 70 140 69 140 68C140 67 141 67 143 68C146 69 147 69 153 69C159 69 160 69 160 69C162 68 164 69 162 70C162 71 162 71 155 71C151 71 148 71 147 71ZM144 54C143 53 143 51 144 49C145 48 145 48 145 47C145 47 146 46 146 46C148 44 149 44 150 44C151 45 151 46 149 47C147 49 147 50 147 51C147 53 145 54 144 54Z"/></svg>