<?xml version="1.0" encoding="UTF-8"?>
<svg xmlns="http://www.w3.org/2000/svg" xmlns:xlink="http://www.w3.org/1999/xlink" width="889.94pt" height="229.27pt" viewBox="149.563 294.029 889.936 229.268">
<defs>
<g>
<g id="glyph-0-0">
<path d="M 19 0.734375 C 27.546875 0.734375 32.9375 -3.421875 32.9375 -10 C 32.9375 -15.625 29.109375 -19.109375 19.171875 -21.40625 C 10.90625 -23.265625 7.984375 -25.6875 7.984375 -29.625 C 7.984375 -33.953125 11.6875 -36.8125 18.046875 -36.8125 C 24.609375 -36.8125 28.609375 -33.671875 28.890625 -28.109375 L 32.265625 -28.109375 C 31.984375 -35.6875 26.703125 -40.078125 18.046875 -40.078125 C 9.671875 -40.078125 4.546875 -35.90625 4.546875 -29.625 C 4.546875 -23.71875 8.65625 -20.453125 18.328125 -18.203125 C 26.25 -16.46875 29.453125 -14.046875 29.453125 -9.953125 C 29.453125 -5.390625 25.453125 -2.53125 19 -2.53125 C 12.203125 -2.53125 7.640625 -5.90625 7.3125 -11.6875 L 3.9375 -11.6875 C 4.21875 -4.109375 10 0.734375 19 0.734375 Z M 19 0.734375 "/>
</g>
<g id="glyph-0-1">
<path d="M 18.09375 0.734375 C 24.609375 0.734375 29.90625 -2.703125 32.140625 -8.265625 L 28.5 -8.3125 C 26.578125 -4.546875 22.8125 -2.359375 18.09375 -2.359375 C 11.640625 -2.359375 7.140625 -6.625 6.578125 -13.203125 L 32.984375 -13.203125 C 33.21875 -23.046875 27.3125 -29.78125 18.15625 -29.78125 C 9.328125 -29.78125 3.265625 -23.546875 3.265625 -14.5625 C 3.265625 -5.515625 9.28125 0.734375 18.09375 0.734375 Z M 6.578125 -16.078125 C 7.140625 -22.484375 11.6875 -26.703125 18.15625 -26.703125 C 24.5 -26.703125 29 -22.65625 29.78125 -16.078125 Z M 6.578125 -16.078125 "/>
</g>
<g id="glyph-0-2">
<path d="M 18.09375 0.734375 C 25.234375 0.734375 30.6875 -3.375 32.65625 -10.171875 L 29.21875 -10.171875 C 27.59375 -5.390625 23.4375 -2.421875 18.09375 -2.421875 C 11.234375 -2.421875 6.515625 -7.359375 6.515625 -14.5625 C 6.515625 -21.6875 11.234375 -26.640625 18.09375 -26.640625 C 23.09375 -26.640625 27.140625 -24 29.0625 -19.390625 L 32.375 -19.390625 C 30.6875 -25.6875 25.015625 -29.78125 18.09375 -29.78125 C 9.390625 -29.78125 3.265625 -23.5 3.265625 -14.5625 C 3.265625 -5.625 9.390625 0.734375 18.09375 0.734375 Z M 18.09375 0.734375 "/>
</g>
<g id="glyph-0-3">
<path d="M 18.546875 0.734375 C 27.484375 0.734375 33.78125 -5.5625 33.78125 -14.5625 C 33.78125 -23.5 27.484375 -29.78125 18.546875 -29.78125 C 9.546875 -29.78125 3.265625 -23.5 3.265625 -14.5625 C 3.265625 -5.5625 9.546875 0.734375 18.546875 0.734375 Z M 6.515625 -14.5625 C 6.515625 -21.6875 11.40625 -26.640625 18.546875 -26.640625 C 25.625 -26.640625 30.515625 -21.6875 30.515625 -14.5625 C 30.515625 -7.359375 25.625 -2.421875 18.546875 -2.421875 C 11.40625 -2.421875 6.515625 -7.359375 6.515625 -14.5625 Z M 6.515625 -14.5625 "/>
</g>
<g id="glyph-0-4">
<path d="M 5.78125 0 L 9.046875 0 L 9.046875 -15.0625 C 9.046875 -21.96875 13.3125 -26.640625 19.453125 -26.640625 C 25.234375 -26.640625 28.828125 -22.484375 28.828125 -15.796875 L 28.828125 0 L 32.09375 0 L 32.09375 -16.078125 C 32.09375 -24.453125 27.421875 -29.78125 19.84375 -29.78125 C 15.171875 -29.78125 11.125 -27.59375 8.828125 -23.4375 L 8.546875 -29.0625 L 5.78125 -29.0625 Z M 5.78125 0 "/>
</g>
<g id="glyph-0-5">
<path d="M 18.15625 0.734375 C 23.609375 0.734375 28.046875 -1.75 30.578125 -5.734375 L 30.96875 0 L 33.671875 0 L 33.671875 -41.59375 L 30.40625 -41.59375 L 30.40625 -23.65625 C 27.828125 -27.421875 23.5 -29.78125 18.15625 -29.78125 C 9.390625 -29.78125 3.265625 -23.375 3.265625 -14.5625 C 3.265625 -5.734375 9.390625 0.734375 18.15625 0.734375 Z M 6.515625 -14.5625 C 6.515625 -21.640625 11.40625 -26.640625 18.546875 -26.640625 C 25.625 -26.640625 30.515625 -21.640625 30.515625 -14.5625 C 30.515625 -7.421875 25.625 -2.421875 18.546875 -2.421875 C 11.40625 -2.421875 6.515625 -7.421875 6.515625 -14.5625 Z M 6.515625 -14.5625 "/>
</g>
<g id="glyph-0-6">
<path d="M 14.890625 0.453125 C 20.0625 0.453125 24.34375 -1.515625 26.859375 -5 L 27.203125 0 L 29.90625 0 L 29.90625 -18.890625 C 29.90625 -25.34375 24.890625 -29.78125 17.640625 -29.78125 C 11.46875 -29.78125 6.796875 -26.421875 5.390625 -21.015625 L 8.71875 -21.015625 C 9.890625 -24.5 13.3125 -26.75 17.703125 -26.75 C 23.09375 -26.75 26.640625 -23.546875 26.640625 -18.71875 L 26.640625 -16.640625 L 13.828125 -16.640625 C 7.875 -16.640625 3.9375 -13.375 3.9375 -8.203125 C 3.9375 -2.859375 8.15625 0.453125 14.890625 0.453125 Z M 7.1875 -8.265625 C 7.1875 -11.578125 9.953125 -13.765625 13.9375 -13.765625 L 26.703125 -13.765625 L 26.703125 -12.53125 C 26.703125 -6.6875 21.75 -2.46875 15 -2.46875 C 10.171875 -2.46875 7.1875 -4.71875 7.1875 -8.265625 Z M 7.1875 -8.265625 "/>
</g>
<g id="glyph-0-7">
<path d="M 5.78125 0 L 9.046875 0 L 9.046875 -13.375 C 9.046875 -22.203125 13.203125 -26.015625 19.453125 -26.015625 L 21.96875 -26.015625 L 21.96875 -29.0625 L 19.5625 -29.0625 C 14.15625 -29.0625 10.84375 -26.921875 8.875 -22.53125 L 8.546875 -29.0625 L 5.78125 -29.0625 Z M 5.78125 0 "/>
</g>
<g id="glyph-0-8">
<path d="M 3.984375 11.234375 L 6.75 11.234375 C 11.96875 11.234375 14.21875 9.953125 16.25 4.890625 L 30.125 -29.0625 L 26.703125 -29.0625 L 20.796875 -14.71875 L 16.640625 -4.390625 L 11.640625 -14.71875 L 4.78125 -29.0625 L 1.125 -29.0625 L 14.953125 -0.453125 L 13.3125 3.65625 C 11.796875 7.3125 10.515625 8.15625 6.40625 8.15625 L 3.984375 8.15625 Z M 3.984375 11.234375 "/>
</g>
<g id="glyph-0-9">
</g>
<g id="glyph-0-10">
<path d="M 17.59375 0 L 21.8125 0 L 21.8125 -3.140625 L 17.703125 -3.140625 C 13.3125 -3.140625 11.359375 -5.390625 11.359375 -10.171875 L 11.359375 -26.078125 L 21.40625 -26.078125 L 21.40625 -29.0625 L 11.359375 -29.0625 L 11.359375 -36.1875 L 8.765625 -36.1875 L 8.484375 -31.75 C 8.265625 -29.625 7.640625 -29.0625 5.453125 -29.0625 L 1.75 -29.0625 L 1.75 -26.078125 L 8.09375 -26.078125 L 8.09375 -10.0625 C 8.09375 -3.484375 11.40625 0 17.59375 0 Z M 17.59375 0 "/>
</g>
<g id="glyph-0-11">
<path d="M 21.296875 0.734375 C 30.125 0.734375 36.1875 -5.734375 36.1875 -14.5625 C 36.1875 -23.375 30.125 -29.78125 21.296875 -29.78125 C 15.84375 -29.78125 11.40625 -27.3125 8.875 -23.265625 L 8.546875 -29.0625 L 5.78125 -29.0625 L 5.78125 11.234375 L 9.046875 11.234375 L 9.046875 -5.515625 C 11.640625 -1.6875 15.96875 0.734375 21.296875 0.734375 Z M 8.9375 -14.5625 C 8.9375 -21.640625 13.828125 -26.640625 20.96875 -26.640625 C 28.109375 -26.640625 32.9375 -21.640625 32.9375 -14.5625 C 32.9375 -7.421875 28.109375 -2.421875 20.96875 -2.421875 C 13.828125 -2.421875 8.9375 -7.421875 8.9375 -14.5625 Z M 8.9375 -14.5625 "/>
</g>
<g id="glyph-0-12">
<path d="M 8.59375 -32.421875 L 8.59375 -29.0625 L 1.96875 -29.0625 L 1.96875 -26.078125 L 8.59375 -26.078125 L 8.59375 0 L 11.859375 0 L 11.859375 -26.078125 L 22.59375 -26.078125 L 22.59375 -29.0625 L 11.859375 -29.0625 L 11.859375 -32.203125 C 11.859375 -37.15625 13.875 -39.234375 18.609375 -39.234375 L 22.875 -39.234375 L 22.875 -42.328125 L 18.328125 -42.328125 C 11.859375 -42.328125 8.59375 -39.0625 8.59375 -32.421875 Z M 8.59375 -32.421875 "/>
</g>
<g id="glyph-0-13">
<path d="M 4.5 -12.765625 L 21.078125 -12.765625 L 21.078125 -15.796875 L 4.5 -15.796875 Z M 4.5 -12.765625 "/>
</g>
<g id="glyph-0-14">
<path d="M 23.5 0.734375 C 35.46875 0.734375 43.4375 -8.203125 43.328125 -20.6875 L 22.25 -20.6875 L 22.25 -17.421875 L 39.671875 -17.421875 C 38.953125 -8.828125 32.703125 -2.703125 23.546875 -2.703125 C 13.828125 -2.703125 7.078125 -9.609375 7.078125 -19.671875 C 7.078125 -29.734375 13.765625 -36.640625 23.546875 -36.640625 C 30.578125 -36.640625 35.96875 -33.046875 38.4375 -27.203125 L 42.15625 -27.203125 C 39.625 -34.84375 32.484375 -40.078125 23.375 -40.078125 C 11.859375 -40.078125 3.59375 -31.59375 3.59375 -19.671875 C 3.59375 -7.75 11.859375 0.734375 23.5 0.734375 Z M 23.5 0.734375 "/>
</g>
</g>
</defs>
<g fill="rgb(0%, 0%, 0%)" fill-opacity="1">
<use xlink:href="#glyph-0-0" x="194.020665" y="487.713763"/>
</g>
<g fill="rgb(0%, 0%, 0%)" fill-opacity="1">
<use xlink:href="#glyph-0-1" x="230.951102" y="487.713763"/>
</g>
<g fill="rgb(0%, 0%, 0%)" fill-opacity="1">
<use xlink:href="#glyph-0-2" x="267.083469" y="487.713763"/>
</g>
<g fill="rgb(0%, 0%, 0%)" fill-opacity="1">
<use xlink:href="#glyph-0-3" x="302.833661" y="487.713763"/>
</g>
<g fill="rgb(0%, 0%, 0%)" fill-opacity="1">
<use xlink:href="#glyph-0-4" x="339.876502" y="487.713763"/>
</g>
<g fill="rgb(0%, 0%, 0%)" fill-opacity="1">
<use xlink:href="#glyph-0-5" x="377.132912" y="487.713763"/>
</g>
<g fill="rgb(0%, 0%, 0%)" fill-opacity="1">
<use xlink:href="#glyph-0-6" x="416.581206" y="487.713763"/>
<use xlink:href="#glyph-0-7" x="451.651352" y="487.713763"/>
</g>
<g fill="rgb(0%, 0%, 0%)" fill-opacity="1">
<use xlink:href="#glyph-0-8" x="476.048708" y="487.713763"/>
</g>
<g fill="rgb(0%, 0%, 0%)" fill-opacity="1">
<use xlink:href="#glyph-0-9" x="506.06066" y="487.713763"/>
</g>
<g fill="rgb(0%, 0%, 0%)" fill-opacity="1">
<use xlink:href="#glyph-0-10" x="519.492976" y="487.713763"/>
</g>
<g fill="rgb(0%, 0%, 0%)" fill-opacity="1">
<use xlink:href="#glyph-0-8" x="543.716105" y="487.713763"/>
</g>
<g fill="rgb(0%, 0%, 0%)" fill-opacity="1">
<use xlink:href="#glyph-0-11" x="575.015086" y="487.713763"/>
</g>
<g fill="rgb(0%, 0%, 0%)" fill-opacity="1">
<use xlink:href="#glyph-0-1" x="614.46338" y="487.713763"/>
</g>
<g fill="rgb(0%, 0%, 0%)" fill-opacity="1">
<use xlink:href="#glyph-0-12" x="649.814537" y="487.713763"/>
</g>
<g fill="rgb(0%, 0%, 0%)" fill-opacity="1">
<use xlink:href="#glyph-0-6" x="671.845782" y="487.713763"/>
<use xlink:href="#glyph-0-2" x="706.915928" y="487.713763"/>
</g>
<g fill="rgb(0%, 0%, 0%)" fill-opacity="1">
<use xlink:href="#glyph-0-1" x="742.66612" y="487.713763"/>
</g>
<g fill="rgb(0%, 0%, 0%)" fill-opacity="1">
<use xlink:href="#glyph-0-9" x="777.511458" y="487.713763"/>
</g>
<g fill="rgb(0%, 0%, 0%)" fill-opacity="1">
<use xlink:href="#glyph-0-13" x="792.579256" y="487.713763"/>
</g>
<g fill="rgb(0%, 0%, 0%)" fill-opacity="1">
<use xlink:href="#glyph-0-9" x="818.156858" y="487.713763"/>
</g>
<g fill="rgb(0%, 0%, 0%)" fill-opacity="1">
<use xlink:href="#glyph-0-14" x="831.645375" y="487.713763"/>
</g>
<g fill="rgb(0%, 0%, 0%)" fill-opacity="1">
<use xlink:href="#glyph-0-6" x="877.955953" y="487.713763"/>
<use xlink:href="#glyph-0-7" x="913.026098" y="487.713763"/>
</g>
<g fill="rgb(0%, 0%, 0%)" fill-opacity="1">
<use xlink:href="#glyph-0-1" x="935.169748" y="487.713763"/>
</g>
<g fill="rgb(0%, 0%, 0%)" fill-opacity="1">
<use xlink:href="#glyph-0-10" x="970.352298" y="487.713763"/>
</g>
<path fill-rule="nonzero" fill="rgb(31.37207%, 14.509583%, 2.351379%)" fill-opacity="1" d="M 174.363281 418.816406 L 207.289062 321.980469 L 246.574219 321.980469 L 279.5 418.816406 L 236.199219 418.816406 L 233.570312 398.894531 L 220.566406 398.894531 L 217.941406 418.816406 Z M 231.496094 388.382812 L 228.175781 358.363281 L 225.824219 358.363281 L 222.367188 388.382812 Z M 231.496094 388.382812 "/>
<path fill-rule="nonzero" fill="rgb(31.37207%, 14.509583%, 2.351379%)" fill-opacity="1" d="M 285.863281 357.53125 C 292.964844 350.890625 302.691406 347.574219 315.050781 347.574219 C 325.195312 347.574219 333.402344 348.585938 339.671875 350.617188 L 337.875 382.570312 C 332.15625 380.171875 325.980469 378.976562 319.339844 378.976562 C 308.546875 378.976562 303.152344 380.636719 303.152344 383.953125 C 303.152344 387.460938 309.148438 389.210938 321.136719 389.210938 C 328.882812 389.210938 335.753906 387.78125 341.75 384.921875 L 341.75 417.15625 C 334.832031 419.644531 325.886719 420.890625 314.910156 420.890625 C 302.648438 420.890625 292.9375 417.546875 285.792969 410.859375 C 278.644531 404.175781 275.070312 395.296875 275.070312 384.230469 C 275.070312 373.070312 278.667969 364.171875 285.863281 357.53125 Z M 285.863281 357.53125 "/>
<path fill-rule="nonzero" fill="rgb(31.37207%, 14.509583%, 2.351379%)" fill-opacity="1" d="M 355.304688 357.257812 C 362.3125 350.800781 371.996094 347.574219 384.355469 347.574219 C 396.804688 347.574219 406.558594 350.824219 413.613281 357.324219 C 420.667969 363.828125 424.195312 372.796875 424.195312 384.230469 C 424.195312 395.667969 420.667969 404.636719 413.613281 411.136719 C 406.558594 417.640625 396.804688 420.890625 384.355469 420.890625 C 371.996094 420.890625 362.3125 417.640625 355.304688 411.136719 C 348.296875 404.636719 344.792969 395.667969 344.792969 384.230469 C 344.792969 372.796875 348.296875 363.804688 355.304688 357.257812 Z M 370.800781 384.230469 C 370.800781 387.828125 375.316406 389.625 384.355469 389.625 C 393.578125 389.625 398.191406 387.828125 398.191406 384.230469 C 398.191406 380.542969 393.578125 378.699219 384.355469 378.699219 C 375.316406 378.699219 370.800781 380.542969 370.800781 384.230469 Z M 370.800781 384.230469 "/>
<path fill-rule="nonzero" fill="rgb(31.37207%, 14.509583%, 2.351379%)" fill-opacity="1" d="M 459.472656 349.648438 L 456.84375 375.929688 L 458.78125 375.929688 C 459.515625 367.816406 461.871094 361.0625 465.835938 355.664062 C 469.800781 350.269531 474.917969 347.574219 481.191406 347.574219 C 486.445312 347.574219 490.414062 349.003906 493.085938 351.859375 L 490.875 389.765625 C 489.398438 387.273438 487.09375 385.085938 483.957031 383.195312 C 480.820312 381.304688 477.730469 380.359375 474.6875 380.359375 C 468.695312 380.359375 464.242188 381.902344 461.339844 384.992188 C 458.433594 388.082031 456.980469 391.65625 456.980469 395.714844 C 456.980469 396.265625 457.027344 396.867188 457.121094 397.511719 L 459.195312 418.816406 L 428.898438 418.816406 L 428.898438 349.648438 Z M 459.472656 349.648438 "/>
<path fill-rule="nonzero" fill="rgb(31.37207%, 14.509583%, 2.351379%)" fill-opacity="1" d="M 497.652344 349.648438 L 529.328125 349.648438 L 526.839844 375.929688 L 528.636719 375.929688 C 529.375 367.816406 531.683594 361.0625 535.554688 355.664062 C 539.429688 350.269531 544.5 347.574219 550.773438 347.574219 C 558.796875 347.574219 564.558594 349.949219 568.0625 354.695312 C 571.566406 359.445312 573.320312 366.570312 573.320312 376.070312 L 573.183594 418.816406 L 540.949219 418.816406 L 543.71875 393.5 C 543.902344 392.300781 543.992188 391.148438 543.992188 390.042969 C 543.992188 383.585938 541.320312 380.359375 535.96875 380.359375 C 532.925781 380.359375 530.644531 381.535156 529.121094 383.886719 C 527.601562 386.238281 526.839844 389.074219 526.839844 392.394531 C 526.839844 393.132812 526.886719 393.914062 526.980469 394.746094 L 528.914062 418.816406 L 497.652344 418.816406 Z M 497.652344 349.648438 "/>
<path fill-rule="nonzero" fill="rgb(31.37207%, 14.509583%, 2.351379%)" fill-opacity="1" d="M 739.941406 332.34375 C 739.941406 332.34375 740.277344 348.625 733.871094 356.421875 C 727.023438 364.757812 712.738281 369.773438 713.890625 370.328125 C 743.351562 384.457031 732.761719 418.816406 732.761719 418.816406 L 591.96875 418.816406 C 591.96875 418.816406 591.253906 392.761719 591.082031 383.25 C 590.953125 376.292969 596.21875 366.183594 600.679688 361.738281 C 604.921875 357.503906 606.933594 356.089844 608.835938 353.832031 C 610.496094 351.859375 605.472656 349.894531 603.5 348.179688 C 592.824219 338.90625 615.953125 328.066406 620.511719 324.867188 C 625.070312 321.667969 641.175781 315.136719 654.253906 325.640625 C 661.105469 331.144531 672.808594 322.820312 673.699219 325.113281 C 674.453125 327.058594 656.332031 348.96875 655.84375 348.125 C 655.671875 347.828125 648.417969 344.90625 648.417969 344.90625 C 648.417969 344.90625 655.632812 337.699219 655.792969 335.914062 C 656.320312 329.992188 649.003906 331.683594 646.988281 333.339844 C 636.875 341.644531 628.714844 347.769531 628.210938 350.265625 C 625.71875 362.570312 642.269531 350.3125 642.269531 350.3125 C 642.269531 350.3125 647.472656 352.9375 647.878906 354.386719 C 648.28125 355.839844 640.296875 362.445312 638.894531 364.703125 C 637.394531 367.109375 635.984375 367.929688 635.71875 373.46875 C 634.214844 404.976562 663.425781 404.496094 670.910156 404.53125 C 680.132812 404.578125 691.546875 399.992188 697.167969 382.535156 C 698.585938 378.132812 697.59375 372.199219 695.09375 368.777344 C 690.042969 361.871094 670.097656 360.046875 667.160156 369.054688 C 666.714844 370.421875 678.363281 370.90625 678.398438 372.140625 C 678.429688 373.375 668.679688 381.265625 666.722656 380.695312 C 664.144531 379.945312 659.460938 377.636719 657.265625 374.953125 C 655.070312 372.265625 653.082031 368.191406 653.550781 364.578125 C 654.140625 360.023438 656.523438 351.558594 660.8125 347.625 C 665.101562 343.695312 678.269531 339.34375 684.242188 339.816406 C 695.230469 340.6875 699.777344 349.019531 705.496094 349.683594 C 711.351562 350.363281 726.707031 344.882812 724.804688 343.949219 C 712.464844 337.871094 724.648438 330.050781 725.578125 330.132812 C 728.316406 330.375 739.941406 332.34375 739.941406 332.34375 Z M 739.941406 332.34375 "/>
<path fill-rule="nonzero" fill="rgb(31.37207%, 14.509583%, 2.351379%)" fill-opacity="1" d="M 746.121094 368.183594 C 746.121094 352.136719 750.710938 339.734375 759.886719 330.972656 C 769.0625 322.210938 781.214844 317.832031 796.339844 317.832031 C 811.464844 317.832031 823.613281 322.210938 832.789062 330.972656 C 841.964844 339.734375 846.554688 352.136719 846.554688 368.183594 C 846.554688 384.230469 841.941406 396.679688 832.722656 405.535156 C 823.5 414.386719 811.371094 418.816406 796.339844 418.816406 C 781.308594 418.816406 769.179688 414.386719 759.957031 405.535156 C 750.734375 396.679688 746.121094 384.230469 746.121094 368.183594 Z M 777.941406 368.324219 C 777.941406 371.273438 779.601562 373.578125 782.921875 375.238281 C 786.242188 376.898438 790.714844 377.730469 796.339844 377.730469 C 801.964844 377.730469 806.4375 376.898438 809.757812 375.238281 C 813.078125 373.578125 814.738281 371.273438 814.738281 368.324219 C 814.738281 365.371094 813.078125 363.066406 809.757812 361.40625 C 806.4375 359.746094 801.964844 358.917969 796.339844 358.917969 C 790.714844 358.917969 786.242188 359.746094 782.921875 361.40625 C 779.601562 363.066406 777.941406 365.371094 777.941406 368.324219 Z M 777.941406 368.324219 "/>
<path fill-rule="nonzero" fill="rgb(31.37207%, 14.509583%, 2.351379%)" fill-opacity="1" d="M 846.417969 397.234375 C 846.417969 390.6875 848.789062 385.40625 853.539062 381.394531 C 858.289062 377.382812 864.585938 375.378906 872.421875 375.378906 C 877.679688 375.378906 882.035156 376.347656 885.496094 378.28125 C 888.953125 380.21875 891.050781 382.664062 891.789062 385.613281 L 893.726562 385.613281 L 893.726562 383.953125 C 893.726562 380.726562 891.675781 377.914062 887.570312 375.515625 C 883.464844 373.117188 878.464844 371.917969 872.5625 371.917969 C 865 371.917969 857.804688 373.625 850.980469 377.039062 L 850.980469 349.785156 C 859.558594 346.925781 868.828125 345.496094 878.785156 345.496094 C 893.355469 345.496094 904.285156 348.21875 911.570312 353.660156 C 918.855469 359.101562 922.5 365.601562 922.5 373.164062 C 922.5 375.285156 922.222656 377.5 921.667969 379.804688 L 920.011719 387.691406 L 929 387.691406 L 929 416.742188 L 891.511719 416.742188 L 894.140625 398.203125 L 891.929688 398.203125 C 891.742188 404.199219 889.4375 409.132812 885.011719 413.003906 C 880.585938 416.878906 875.605469 418.816406 870.070312 418.816406 C 854.300781 418.816406 846.417969 411.621094 846.417969 397.234375 Z M 884.871094 395.160156 C 891.328125 395.160156 894.554688 393.960938 894.554688 391.5625 C 894.554688 389.164062 891.328125 387.964844 884.871094 387.964844 C 878.511719 387.964844 875.328125 389.164062 875.328125 391.5625 C 875.328125 393.960938 878.511719 395.160156 884.871094 395.160156 Z M 884.871094 395.160156 "/>
<path fill-rule="nonzero" fill="rgb(31.37207%, 14.509583%, 2.351379%)" fill-opacity="1" d="M 932.738281 416.742188 L 932.738281 319.90625 L 965.800781 319.90625 L 960.542969 377.867188 L 961.925781 377.867188 L 970.503906 347.574219 L 1015.734375 347.574219 L 968.84375 380.496094 L 969.949219 381.878906 C 974.558594 376.808594 979.910156 374.273438 985.996094 374.273438 C 995.957031 374.273438 1003.359375 378.121094 1008.199219 385.824219 C 1013.035156 393.523438 1015.457031 403.367188 1015.457031 415.355469 L 1015.457031 416.742188 L 979.21875 416.742188 C 979.769531 413.328125 980.070312 410.652344 980.117188 408.714844 C 980.164062 406.78125 980.183594 405.488281 980.183594 404.84375 C 980.183594 402.167969 980.023438 399.242188 979.699219 396.058594 C 979.378906 392.878906 978.386719 390.25 976.726562 388.175781 C 975.066406 386.097656 972.898438 385.0625 970.226562 385.0625 L 969.808594 385.0625 C 966.953125 385.0625 964.96875 386.054688 963.863281 388.035156 C 962.753906 390.019531 962.203125 392.164062 962.203125 394.46875 C 962.203125 395.484375 962.292969 396.542969 962.476562 397.648438 L 964.96875 416.742188 Z M 932.738281 416.742188 "/>
</svg>
