<svg xmlns="http://www.w3.org/2000/svg" viewBox="0 0 99.00000000000011 108.63281200000006"><path fill="#ffffff" d="M 9.094 38.387 C 9.094 38.387 9.395 37.664 12.281 35.379 C 15.172 33.09 42.066 15.641 46.52 12.996 C 50.973 10.348 52.297 10.285 54.703 8.0 C 57.109 5.715 62.887 3.309 69.203 1.805 C 75.52 0.297 79.25 1.082 81.777 0.781 C 84.305 0.48 86.652 2.586 88.336 4.148 C 90.02 5.715 89.602 5.773 88.938 12.152 C 88.277 18.531 85.93 24.066 85.328 30.262 C 84.727 36.461 83.043 44.344 83.281 45.484 C 83.523 46.629 95.438 59.805 95.676 61.129 C 95.918 62.453 97.18 80.926 97.844 82.789 C 98.504 84.656 98.625 84.836 97.0 86.582 C 95.375 88.324 93.332 91.938 78.168 98.375 C 63.004 104.812 60.238 108.242 57.047 108.184 C 53.859 108.121 42.246 107.883 33.762 104.812 C 25.281 101.742 20.586 101.863 14.27 97.832 C 7.949 93.801 4.219 91.516 3.617 89.41 C 3.016 87.305 0.371 81.527 0.609 79.902 C 0.852 78.277 2.836 77.133 3.918 69.914 C 5.004 62.695 5.305 61.672 5.785 55.293 C 6.266 48.914 7.289 42.297 9.094 38.387 Z M 9.094 38.387 "/><path fill="#a2a3a2" d="M 85.328 30.262 C 85.93 24.066 88.277 18.531 88.938 12.152 C 89.363 8.055 89.688 6.562 89.418 5.609 C 89.379 5.645 69.742 23.586 68.121 24.305 C 66.496 25.027 63.426 50.84 62.523 56.797 C 61.621 62.754 61.078 77.555 61.262 78.641 C 61.441 79.723 68.66 86.402 68.66 88.387 C 68.66 90.371 68.84 76.832 69.023 75.391 C 69.203 73.945 70.105 68.352 71.367 64.738 C 72.633 61.129 83.281 45.484 83.281 45.484 C 83.043 44.344 84.727 36.461 85.328 30.262 Z M 85.328 30.262 "/><path fill="#ffffff" d="M 61.262 78.641 C 61.078 77.555 61.621 62.754 62.523 56.797 C 63.426 50.84 66.496 25.027 68.121 24.305 L 61.227 27.375 C 61.227 27.375 31.117 35.496 29.313 35.859 C 27.504 36.219 9.094 38.387 9.094 38.387 C 7.289 42.297 6.266 48.914 5.785 55.293 C 5.305 61.672 5.004 62.695 3.918 69.914 C 2.836 77.133 0.852 78.277 0.609 79.902 C 0.371 81.527 3.016 87.305 3.617 89.41 C 3.793 90.016 4.227 90.641 4.91 91.312 C 4.91 91.312 19.203 88.781 20.645 88.586 C 22.09 88.387 54.039 93.98 56.207 93.98 C 58.371 93.98 68.66 88.387 68.66 88.387 L 68.563 87.914 C 67.703 85.512 61.43 79.648 61.262 78.641 Z M 61.262 78.641 "/><path fill="#ffffff" d="M 68.945 76.656 L 68.66 88.387 L 79.805 97.668 C 93.48 91.672 95.438 88.262 97.0 86.582 C 98.625 84.836 98.504 84.656 97.844 82.789 C 97.18 80.926 95.918 62.453 95.676 61.129 C 95.676 61.129 86.711 65.102 84.906 65.641 C 83.102 66.184 68.945 76.656 68.945 76.656 Z M 68.945 76.656 "/><path fill="#a2a3a2" d="M 68.66 88.387 C 68.66 88.387 58.371 93.98 56.207 93.98 C 54.039 93.98 22.09 88.387 20.645 88.586 C 19.203 88.781 4.91 91.312 4.91 91.312 C 6.59 92.98 9.773 94.965 14.27 97.832 C 20.586 101.863 25.281 101.742 33.762 104.812 C 42.246 107.883 53.859 108.121 57.047 108.184 C 60.238 108.242 63.004 104.812 78.168 98.375 C 78.734 98.133 79.277 97.898 79.805 97.668 Z M 68.66 88.387 "/><path fill="#000000" d="M 9.887 90.438 C 9.887 90.438 18.539 87.004 20.465 86.641 C 22.391 86.281 25.16 87.402 27.445 87.625 C 29.73 87.844 36.848 90.996 36.848 90.996 C 36.848 90.996 22.633 89.648 21.367 89.559 C 20.105 89.469 9.887 90.438 9.887 90.438 Z M 9.887 90.438 "/><path fill="#000000" d="M 69.652 71.578 C 69.652 71.578 68.344 75.93 68.211 76.832 C 68.074 77.734 68.805 82.473 68.805 82.473 C 68.805 82.473 69.289 77.445 69.652 77.027 C 70.016 76.609 72.273 74.219 72.273 74.219 C 72.273 74.219 70.152 74.805 69.789 75.027 C 69.43 75.254 69.652 71.578 69.652 71.578 Z M 69.652 71.578 "/><path fill="#000000" d="M 66.98 27.477 C 66.98 27.477 65.32 30.805 65.051 31.977 C 64.781 33.152 64.328 35.316 63.969 37.574 C 63.605 39.828 63.719 48.059 63.719 48.059 C 63.719 48.059 66.133 38.656 66.223 36.941 C 66.336 35.148 66.586 33.371 66.98 31.617 C 67.309 30.262 67.563 25.32 67.563 25.32 Z M 66.98 27.477 "/><path fill="#000000" d="M 57.133 108.633 C 57.102 108.633 57.07 108.633 57.039 108.633 C 44.797 108.398 37.543 106.656 33.609 105.234 C 30.496 104.109 27.855 103.402 25.527 102.781 C 21.523 101.715 18.07 100.793 14.027 98.211 L 13.094 97.617 C 7.105 93.801 3.805 91.695 3.188 89.531 C 2.992 88.859 2.566 87.75 2.117 86.574 C 0.867 83.336 0.0 80.957 0.164 79.836 C 0.254 79.234 0.539 78.711 0.902 78.047 C 1.641 76.699 2.754 74.664 3.477 69.848 C 3.711 68.277 3.91 67.0 4.082 65.898 C 4.68 62.371 5.098 58.828 5.336 55.258 C 5.738 49.91 6.648 42.609 8.688 38.199 C 8.766 38.02 9.262 37.199 12.004 35.023 C 14.883 32.746 41.902 15.219 46.289 12.609 C 47.949 11.621 49.191 10.984 50.188 10.473 C 51.895 9.598 52.922 9.07 54.391 7.676 C 56.789 5.398 62.559 2.922 69.098 1.367 C 73.484 0.32 76.672 0.363 78.996 0.398 C 79.906 0.434 80.816 0.41 81.727 0.332 C 84.527 0.0 87.105 2.391 88.641 3.82 C 90.188 5.258 90.133 5.719 89.711 9.312 C 89.617 10.082 89.504 11.047 89.387 12.199 C 89.051 15.406 88.293 18.43 87.555 21.352 C 86.793 24.375 86.074 27.23 85.773 30.305 C 85.477 33.371 84.91 36.883 84.457 39.703 C 84.023 42.371 83.617 44.895 83.723 45.395 C 83.91 45.941 86.949 49.543 89.391 52.438 C 93.863 57.738 95.988 60.316 96.121 61.051 C 96.203 61.516 96.395 63.812 96.656 66.988 C 97.129 72.75 97.848 81.461 98.266 82.641 L 98.313 82.773 C 99.0 84.707 98.992 85.102 97.328 86.887 C 97.172 87.059 97.008 87.246 96.828 87.457 C 95.172 89.379 92.086 92.953 78.344 98.789 C 73.145 100.965 68.09 103.438 63.176 106.199 C 60.27 107.809 58.781 108.633 57.133 108.633 Z M 9.5 38.574 C 7.957 41.926 6.797 47.875 6.234 55.328 C 5.992 58.918 5.57 62.488 4.969 66.035 C 4.797 67.137 4.598 68.414 4.363 69.98 C 3.617 74.953 2.457 77.074 1.691 78.477 C 1.359 79.086 1.121 79.523 1.055 79.969 C 0.91 80.941 2.094 84.012 2.953 86.254 C 3.434 87.496 3.848 88.574 4.051 89.285 C 4.574 91.121 7.965 93.281 13.574 96.859 L 14.512 97.453 C 18.438 99.961 21.668 100.82 25.758 101.914 C 28.105 102.539 30.766 103.25 33.918 104.391 C 37.785 105.789 44.938 107.504 57.059 107.734 C 58.504 107.754 59.918 106.977 62.738 105.41 C 67.68 102.633 72.766 100.152 77.992 97.961 C 91.539 92.207 94.539 88.734 96.148 86.867 C 96.336 86.652 96.504 86.453 96.672 86.273 C 98.07 84.773 98.059 84.742 97.469 83.074 L 97.418 82.941 C 96.996 81.746 96.418 75.043 95.758 67.062 C 95.52 64.148 95.313 61.637 95.234 61.211 C 95.051 60.539 91.383 56.191 88.703 53.016 C 84.637 48.195 82.969 46.176 82.844 45.578 C 82.711 44.945 83.0 43.078 83.566 39.559 C 84.02 36.75 84.586 33.254 84.883 30.219 C 85.188 27.074 85.949 24.055 86.684 21.133 C 87.41 18.238 88.164 15.25 88.492 12.105 C 88.613 10.945 88.727 9.98 88.816 9.207 C 89.238 5.637 89.23 5.594 88.031 4.48 C 86.516 3.07 84.223 0.941 81.832 1.227 C 80.883 1.309 79.934 1.332 78.984 1.297 C 76.703 1.266 73.582 1.223 69.309 2.238 C 62.91 3.762 57.301 6.152 55.012 8.328 C 53.449 9.812 52.316 10.391 50.598 11.273 C 49.613 11.777 48.387 12.406 46.75 13.379 C 42.371 15.984 15.43 33.461 12.562 35.73 C 9.961 37.789 9.531 38.52 9.5 38.574 Z M 9.5 38.574 L 9.5 38.578 Z M 9.504 38.574 L 9.5 38.574 Z M 9.504 38.574 "/></svg>